<?xml version="1.0" encoding="utf-8"?>
<svg version="1.1" id="Layer_1" xmlns="http://www.w3.org/2000/svg" xmlns:xlink="http://www.w3.org/1999/xlink" x="0px" y="0px"
	 viewBox="0 0 1464 1642.448" style="background: cyan; foreground:" enable-background="new 0 0 1464 1642.448" xml:space="preserve">
<path fill="black" d="M1432.788,1078.823c3.848,1.799,7.946,2.165,12.294,1.05c-0.685-5.821-45.959-30.768-48.571-32.201
	c-60.033-32.937-97.429-44.316-113.372-52.711c-4.045-2.13-5.785-2.381-5.745-4.098c0.155-6.609,94.439-9.709,106.636-18.613
	c-4.64-4.786-111.187,12.119-133.424,12.774c-18.906,0.557-41.161-7.768-44.167-14.951c16.568-9.201,75.198-12.272,87.587-22.25
	c-3.424-3.391-1.682-4.487-51,5.867c-16.618,3.489-45.761,7.392-60.031,11.764c-12.451,3.814-54.514,4.549-55.564,4.57
	c-70.225,1.369-151.647,13.491-265.184,0.065c-125.253-14.811-105.986-62.062-106.307-189.193
	c-0.061-24.197-9.647-88.751,76.579-104.728c66.156-12.258,140.983-9.941,167.138-9.292c30.011,0.745,162.49,7.062,161.48,7.021
	c2.539,0.102,124.734,22.974,125.75,23.169c2.764,0.53,5.001-0.323,7.138-2.439c-12.684-10.215-70.918-12.993-87.587-22.25
	c2.267-5.415,14.495-9.814,20.083-11.632c18.662-6.072,34.431-2.424,53.388-0.233c105.535,12.199,100.987,12.919,104.12,9.688
	c-10.396-7.589-93.372-12.571-104.427-16.603c-8.676-3.165,8.449-8.418,36.228-20.046c69.793-29.214,128.559-65.083,129.252-70.974
	c-9.753-2.503-12.734,1.943-38.099,13.402c-71.896,32.481-90.976,43.494-93.586,37.723c-1.51-3.34,47.669-44.993,46.361-48.642
	c-20.865,5.656-70.498,62.081-108.717,69.27c-76.001,14.295-100.572,21.178-105.755,15.321
	c20.345-15.275,36.715-25.702,39.438-36.435c-4.064,0.475-7.495,1.056-10.573,2.987c-49.43,31.018-26.563,33.104-129.085,32.38
	c-5.857-0.041-35.977-1.629-43.548-3.257c2.756-7.17,8.825-6.405,85.347-55.889c31.163-20.152,46.344-22.024,156.746-46.799
	c36.39-8.166,31.048-7.762,76.147-13.646c1.259-0.164,3.388,0.339,3.268-1.495c-0.118-1.797-2.238-1.17-3.49-1.134
	c-4.453,0.13-32.325-1.19-32.778-1.31c-2.429-0.641-3.6-2.635-0.491-4.306c125.444-67.444,74.648-32.579,114.501-60.539
	c14.412-10.111,23.361-10.149,39.998-22.893c5.73-4.388-10.113-2.858-20.159,3.134c-29.818,17.786-42.179,25.427-63.663,33.48
	c-4.14,1.552-20.259,2.548-9.238-12.06c19.556-25.925,22.842-30.332,16.396-31.761c-1.98-0.439-2.871,0.977-3.717,2.15
	c-8.341,11.587-18.304,20.387-28.938,34.784c-20.665,27.977-53.083,43.807-86.456,54.583c-16.583,5.355-64.59,17.622-67.52,16.451
	c0.043-2.26,25.568-46.48,26.697-48.405c14.983-25.564,8.388-38.907,35.265-62.052c64.757-55.764,68.052-57.803,65.79-60.14
	c-1.321-1.364-2.898,0.37-4.039,1.163c-93.703,65.13-109.078,107.471-18.478-87.554c3.314-7.134-1.067-11.357-3.708-6.988
	c-23.803,39.366-43.665,96.974-49.494,85.867c-11.99-22.846-2.603-36.617-7.038-58.123c-0.121-0.588-0.423-1.179-1.216-1.151
	c-3.058,2.609-4.608,4.68-4.559,7.544c0.068,4.008-2.429,22.671,0.215,47.487c7.342,68.927-24.775,145.235-58.481,174.658
	c-12.039,10.509-144.863,76.741-145.877,77.248c-15.467,7.718-47.253,26.025-41.679,11.777
	c16.061-41.053,9.482-32.005,88.205-44.804c0.987-0.161,1.853-0.351,1.613-1.682c-3.004-1.566-38.604,1.539-53.92,1.5
	c-3.147-0.008-3.993-3.172-1.865-5.178c17.499-16.498,51.301-31.941,56.903-44.724c-2.291-0.957-0.344-1.721-37.245,20.129
	c-2.586,1.531-6.015-0.482-5.42-3.945c5.011-29.17,6.116-28.259,4.777-29.174c-0.973-0.665-2.169-0.305-2.911,0.552
	c-15.051,17.4-5.145,20.008-19.26,44.726c-6.833,11.966-15.707,17.066-23.682,28.167c-25.271,35.175-23.167,47.551-48.078,54.281
	c-25.042,6.765-50.405-3.445-124.876,19.67c-1.004,0.312-35.116,10.317-47.896,13.443c-1.614,0.395-4.059,1.281-4.973-0.72
	c-0.863-1.891,1.51-2.774,2.724-3.787c9.169-7.641,30.664-23.642,56.732-52.189c43.36-47.484,78.227-117.145,130.589-138.32
	c23.681-9.577,65.01-23.425,80.413-28.47c26.037-8.528,44.351,1.824,51.902,2.979c5.158,0.789,12.483,2.957,13.532,0.036
	c0.989-2.754-1.277-3.586-2.277-4.489c-12.077-10.913-40.888-5.419-50.008-11.344c19.097-11.364,66.267-16.022,69.305-24.754
	c-2.338-1.961-10.511-0.1-11.982,0.172c-65.226,12.04-153.668,54.845-161.991,46.469c26.158-33.678,80.356-73.953,115.794-97.814
	c42.182-28.404,67.301-39.407,112.119-61.226c6.524-3.176,7.435-3.419,6.696-4.617c-1.683-2.728-22.568,6.521-43.069,11.44
	c-4.277,1.026-3.639-3.335-2.125-6.003c12.894-22.704,26.615-53.753,53.391-70.101c8.168-4.987,19.739-15.607,19.5-18.502
	c-5.011-2.877-52.203,34.115-49.712,21.368c0,0,2.473-21.549,2.473-21.555c0.777-6.973-2.962-9.295-4.942-8.403
	c-7.834,3.529-7.406,4.021-9.788,41.37c-2.236,35.047-26.007,50.077-54.026,70.388c-57.767,41.874-60.926,41.127-60.387,30.37
	c0.05-1.002,7.812-39.876,20.076-65.862c11.814-25.035,29.805-41.601,18.902-42.976c-4.117-0.519-12.932,15.706-17.448,13.323
	c-6.08-3.208,30.412-93.634,34.752-134.583c0.285-2.685-3.713-4.736-6.175-0.301c-10.399,18.733-20.624,69.109-30.075,78.996
	c-2.641,2.762-5.185,0.539-5.375-1.389c-2.867-29.039-3.471-58.355-13.049-46.853c-6.051,7.267,6.174,30.012,5.311,87.283
	c-0.721,47.812-18.809,107.923-34.607,135.635c-18.863,33.09-51.894,40.216-114.871,121.033c-6.597,8.467-8.343,9.876-10.679,8.817
	c-1.584-0.718-1.819-1.908-1.756-3.384c1.285-30.249,2.169-42.875,6.75-58.423c9.535-32.363,20.419-50.47,17.667-55.955
	c-12.397,10.972-13.763,27.849-27.068,39.147c-4.657,3.955-7.798,1.088-9.147-4.618c-2.193-9.279-2.255-15.012-9.323-17.917
	c-2.389-0.982-3.238-0.458-3.224,2.026c0.014,2.45,0.194,4.879,0.844,7.31c10.993,41.109,19.82,101.842-4.476,136.681
	c-11.155,15.995-45.98,50.316-65.044,69.942c-12.087,12.444-31.952,26.534-35.988,9.624c-5.331-22.335-2.702-32.719-2.661-38.432
	c0.057-8.084,2.972-41.551,3.604-45.537c3.152-19.889,6.689-68.935,51.746-113.578c20.813-20.621,99.833-80.46,127.358-115.066
	c23.208-29.179,23.522-48.694,25.451-55.83c22.859-84.519,22.219-69.733,40.086-164.043c0.828-4.37-1.216-6.161-5.451-4.695
	c-11.048,3.823-7.324,15.015-19.182,9.882c-9.007-3.899-10.273-4.571-11.946-2.756c-1.64,1.78,5.783,16.36,8.604,19.855
	c3.14,3.892,2.422,5.056,2.216,33.664c-0.168,23.303-4.615,43.329-14.792,74.747c-14.917,46.05-15.858,66.745-62.569,106.881
	c-8.398,7.216-17.872,3.456-15.987-7.542c4.16-24.274,27.694-31.709,30.32-37.275c-16.804,2.85-17.353,3.237-20.566,2.593
	c-5.502-1.102-6.28-5.254-6.293-11.719c-0.179-92.87,0.159-89.328-0.939-94.366c-1.266-5.805-7.545-13.454-9.279-7.604
	c-1.49,5.027-3.471,21.625-3.68,33.015c-1.339,72.974,7.594,50.809-40.134,105.277c-6.954,7.936-14.36,9.486-49.835,20.417
	c-25.726,7.927-23.7,5.294-23.92,1.828c-5.101-80.292-13.993-65.728,10.988-89.243c31.244-29.411,63.192-57.124,51.753-56.392
	c-10.144,0.65-15.37,14.738-68.956,52.851c-1.024,0.728-1.975,1.462-3.668,1.181c-9.834-68.778-12.729-70.517,17.697-78.827
	c115.356-31.505,98.917-27.283,112.166-35.313c2.162-1.31,0.631-3.046-0.717-3.201c-1.136-0.13-2.142,0.24-9.368,1.927
	c-8.104,1.892-39.47,19.246-49.044,12.95c3.023-15.181,34.292-30.552,30.295-37.557c-4.08,0.392-8.134,1.315-11.634,3.61
	c-26.32,17.263-16.105,29.941-50.215,41.761c-17.628,6.108-37.351,8.788-45.079,8.546c-11.968-0.376-13.556-16.243-11.211-24.996
	c7.412-27.671,106.807-62.468,113.942-77.752c-5.388-1.11-26.227,14.295-30.28,12.301c1.129-6.212,1.453-12.329,2.513-18.368
	c1.664-9.484,1.554-10.084,0.446-10.657c-1.871-0.967-3.042,1.218-4.487,3.132c-8.346,11.06-6.203,24.802-26.876,39.399
	c-12.473,8.807-31.699,15.866-38.976,13.443c-0.714-5.937,38.064-61.866,26.408-53.771c-21.533,14.956-22.351,21.217-25.073,14.334
	c-3.516-8.893-8.249-17.216-11.975-26.007c-0.63-1.487-1.078-3.189-3.122-4.069c-2.793,9.791,24.108,32.007-18.2,105.807
	c-1.813,3.163-5.688,0.867-7.418-2.309c-15.801-29.012-14.066-26.266-17.337-22.017c-2.089,2.714-2.475,2.801-5.115,0.675
	c-4.857-3.912-8.842-8.583-11.756-14.108C640.784,70,641.068,68.654,637.852,67.312c-6.435,26.061,14.09,38.499,19.437,56.11
	c4.459,14.685-14.424,105.624-26.238,76.994c-13.953-33.819-12.965-33.148-15.551-33.188c-5.038-0.079-8.156,20.515-11.306,21.509
	c-1.688-0.484-2.856-4.326-8.93-12.84c-3.723-5.22-8.787-8.601-15.125-9.859c-2.774-0.551-3.447,0.124-2.955,2.854
	c1.604,8.9,2.37,7.738,35.498,40.471c16.101,15.909,19.084,17.15,15.997,23.011c0,0-19.846,43.171-36.624,78.212
	c-2.516,5.254-6.557,8.62-11.226,11.879c-12.597-20.396-26.614-81.186-16.583-150.677c9.194-63.691,33.666-77.619,51.461-128.005
	c0.889-2.517,0.081-4.502-1.522-6.368c-1.963-2.287-9.342,1.276-10.538,7.294c-4.797,24.148-20.469,46.158-32.202,55.151
	c-3.945,3.024-0.016,6.238-34.879-46.049c-0.78-1.17-1.238-2.83-3.146-3.072c-1.177,3.949-0.32,23.028,12.308,40.668
	c7.436,10.387,11.969,19.752,11.288,32.459c-0.587,10.948-5.156,59.732-8.094,72.505c-4.81,20.914-3.977,19.027-9.048,20.679
	c-3.204,1.044-1.335-2.635-10.55-10.901c-11.608-10.413-41.662-42.352-42.337-31.534c-0.479,7.673,3.1,9.479,10.781,17.289
	c0.718,0.73,1.859,1.427,1.143,2.708c-1.718,3.076-1.612,2.031-44.953-20.726c-5.463-2.868-7.812-4.749-7.866-0.977
	c-0.096,6.767,5.452,9.152,16.324,15.316c95.93,54.389,79.141,22.4,89.404,174.213c0,0,4.359,103.897,4.359,103.898
	c0.672,19.168-64.476-48.582-99.05-82.35c-37.933-37.049-31.207-84.191-44.368-172.254c-5.157-34.508-14.607-126.864-19.512-128.261
	c-1.448-0.412-1.71,1.262-3.239,4.51c-2.717,5.77-3.522,2.753-9.693,0.476c-4.217-1.556-3.493,0.255-2.254,12.498
	c4.179,41.258,36.539,101.698,19.863,99.378c-9.662-1.344-70.819-109.409-79.554-103.08c-1.536,1.113-3.844-3.39,28.362,50.441
	c-4.998-1.071-31.824-14.853-34.502-10.581c-1.404,2.24,12.435,16.907,37.513,29.112c8.336,4.057,56.893,44.612,44.806,110.46
	c-0.701,3.82-1.255,3.993-4.158,1.581c-24.177-20.09-23.646-20.368-25.366-19.185c-3.005,2.068,4.745,12.885,6.565,15.355
	c10.886,14.779,20.361,26.729,29.822,52.874c2.998,8.285-4.131,15.565-16.048,9.58c-34.176-17.163-59.282-39.982-70.315-77.111
	c-6.084-20.472-14.717-36.176-20.679-49.866c-18.085-41.525-5.805-48.782-25.655-61.301c-0.736-0.464-1.516-1.163-3.042-0.398
	c1.542,10.505,3.113,21.199,4.781,32.562c-7.292-2.672-27.347-20.782-41.434-22.648c-0.667,2.897,20.028,21.448,34.172,30.23
	c16.184,10.049,15.802,14.957,30.941,49.466c0.439,1,3.858,11.495-1.91,9.434c-10.834-3.871-40.547-29.375-54.372-29.117
	c-0.283,3.659,50.691,45.757,57.877,51.716c6.824,5.659,11.351,12.74,14.875,20.714c-2.022,1.699-19.982,1.279-22.602,1.188
	c-82.976-2.888-113.72-71.03-124.124-83.208c-1.203-1.408-2.386-2.617-4.271-1.654c-1.987,1.015-0.88,2.6-0.408,4.003
	c9.795,29.108,9.602,26.945,8.128,28.126c-41.373-18.596-39.859-18.558-41.044-16.891c-2.212,3.113,14.374,12.428,16.385,13.625
	c133.549,79.483,140.421,63.412,162.185,71.71c-1.218,3.029-28.214,13.759-43.644,15.032c-26.671,2.2-45.595-4.479-54.02-2.302
	c11.085,8.525,41.856,14.798,60.474,9.102c22.648-6.929,43.783-8.393,67.283,2.949c63.673,30.733,83.598,45.312,98.827,68.157
	c0.899,1.349,2.107,2.572,1.948,4.571c-19.003,0-98.611-7.452-98.792,0.492c-0.045,1.97-1.12,1.338,34.356,7.082
	c0.211,2.522,1.565,1.422-27.121,13.515c-1.023,0.431-2.143,0.704-1.677,2.201c1.181,3.795,23.818-3.262,48.962-8.872
	c63.93-14.263,54.705,2.26,124.901,54.917c18.824,14.121,40.666,29.086,54.48,55.019c2.765,5.189,4.137,10.4-1.756,10.738
	c-3.974,0.228-69.519-11.224-138.767-52.24c-27.997-16.582-24.457-8.412-23.409-7.508c3.88,3.35,0.969,1.006,54.743,41.73
	c3.408,2.581-0.156,3.412-9.241,5.991c-39.141,11.111-37.299,9.945-37.234,11.758c2.084,2.315,25.869-2.883,45.737-5.893
	c16.932-2.566,23.916-0.907,55.74,7.191c39.097,9.948,64.879,13.549,79.542,41.891c20.798,40.201,31.802,30.123,36.931,63.652
	c1.418,9.27-1.127,11.749-10.587,12.318c-18.975,1.141-69.087-16.429-86.852-23.704c-118.91-48.698-133.891-81.426-156.518-133.619
	c-11.449-26.408-12.832-27.82-15.862-26.203c-1.813,0.967-2.441-4.237,25.259,73.805c-11.434-0.857-29.718-8.871-39.328-13.861
	c-49.806-25.857-75.287-99.459-148.694-140.335c-15.386-8.568-34.365-13.912-47.264-30.583
	c-15.853-20.488-4.304-29.861-14.915-34.79c-4.021-1.868-6.505,3.452-6.984,7.864c-1.967,18.117,6.822,25.261,8.584,35.098
	c-11.97,0.41-67.669-3.486-74.606-2.657c0.169,4.697,39.471,8.883,41.495,9.054c10.349,0.874,42.948,1.678,76.413,19.249
	c79.457,41.72,125.839,136.015,116.117,133.408c-11.075-2.969,3.112,2.64-20.163-6.266c-85.84-32.846-115.832-44.841-137.212-62.9
	c-29.876-25.236-51.088-59.718-55.879-57.589c-3.043,1.353,3.159,14.319,1.655,19.514c-14.707-1.222-47.265-11.596-48.587-8.3
	c-1.206,3.007,13.794,6.787,50.435,21.578c22.458,9.065,18.646,6.65,34.778,21.077c0.549,0.491,1.332,0.826,1.005,1.904
	c-1.683,1.195-38.957,13.556-74.073,12.819c-12.805-0.269-14.395,0.319-14.413,2.65c-0.068,8.907,72.82-3.057,77.201-3.75
	c18.603-2.942,25.298,3.891,49.316,14.979c69.533,32.101,61.963,26.557,68.784,36.203c-20.456,7.017-123.582,10.321-123.771,17.438
	c-0.143,5.388,46.038-0.389,67.631-2.39c65.942-6.11,176.246,0.128,220.212,39.134c-13.8,4.988-63.512,2.139-64.785,8.112
	c2.048,3.386,43.457,4.284,49.697,4.508c19.38,0.697,27.461,5.442,51.975,18.565c13.746,7.358,42.547,25.585,43.312,29.784
	c-22.553,3.534-62.527,2.283-71.402,1.764c-46.311-2.708-77.064-14.685-104.518-33.707c-84.714-58.697-68.199-38.192-27.509-8.146
	c4.789,3.536,35.015,25.746,36.974,32.409c-31.473,0.434-79.313-13.001-105.978-22.14c-24.744-8.48-57.54-27.288-60.511-21.818
	c-1.186,2.184,0.965,2.573,2.043,3.351c24.826,17.901,24.934,17.137,27.242,20.566c-34.02-6.674-178.492-55.241-152.876-40.104
	c6.014,3.554,48.777,21.401,48.604,23.713c-11.105,4.305-46.253,12.825-46.124,14.785c0.047,0.71,0.726,1.138,1.32,0.956
	c3.472-1.064,7.052-0.3,10.561-0.729c29.563-3.618,58.615-9.141,86.197-2.788c5.484,1.263,90.593,19.196,90.189,24.93
	c-0.372,5.286-138.764,16.412-138.278,23.263c0.267,3.764,30.358-0.783,58.142-3.553c23.884-2.381,77.244-11.197,61.984,5.47
	c-12.628,13.792-12.435,12.091-12.676,14.368c4.416,1.884,8.867,1.847,13.34,1.469c11.386-0.962,14.991-8.546,24.688-23.42
	c8.467-12.986,8.234-11.935,56.827-7.02c64.587,6.533,80.39,7.969,79.898,12.112c-0.219,1.848-1.958,1.053-10.726,2.834
	c-14.547,2.954-26.25,11.105-51.096,17.076c-16.529,3.972-45.862,10.69-84.948,23.505c-10.061,3.299-17.9,14.668-0.999,8.606
	c69.808-25.041,71.441-11.71,123.321-34.358c29.005-12.662,51.819-12.125,131.935-13.152c53.317-0.683,80.364-3.482,148.018,24.084
	c90.963,37.063,66.1,45.205,69.646,167.641c1.349,46.559,3.839,69.42-26.816,88.061c-42.718,25.975-115.201,44.763-131.128,44.767
	c-186.902,0.048-161.556-2.686-209.005-20.647c-20.936-7.925-44.303-8.049-80.255-18.267c-18.875-5.365-40.634-16.031-34.869-7.291
	c8.651,13.115,89.311,26.571,121.4,39.125c19.273,7.54,17.494,7.515,33.449,10.087c3.04,0.49,2.609,3.044,0.284,3.567
	c-16.421,3.695,4.443,1.106-47.413,6.631c-72.129,7.686-72.438,7.539-77.859,5.781c-13.502-4.377-18.36-43.948-47.692-31.432
	c0.224,2.123,1.958,3.13,3.222,4.265c7.435,6.682,17.133,17.818,7.188,19.242c-18.628,2.668-117.527-11.935-117.861-7.223
	c-0.581,8.199,160.04,17.81,134.687,26.195c-14.044,4.645-86.98,27.286-128.398,24.378c-3.591-0.252-54.958-5.898-54.958-5.898
	c-1.096-0.336-2.274,1.456-0.134,2.133c10.178,3.217,39.225,11.394,44.938,13.609c0.264,3.521-50.635,21.661-49.59,25.603
	c1.51,5.698,111.16-33.618,153.862-41.995c-4.47,6.642-31.126,20.526-29.285,23.917c2.122,3.907,27.562-7.981,31.595-9.864
	c35.015-16.347,96.745-34.621,134.894-34.095c-3.087,10.497-73.825,56.628-69.796,61.781c1.667,2.132,3.782-0.558,5.478-1.486
	c42.002-22.964,61.291-47.489,104.82-60.534c41.899-12.556,101.142-11.33,125.952-7.442c-1.512,8.304-60.728,38.835-65.031,41.057
	c-12.523,6.465-25.186,8.068-57.502,8.406c-2.095,0.022-21.193,1.313-22.451,3.393c1.286,6.037,50.754,3.041,64.785,8.112
	c-27.795,24.659-69.821,30.574-105.569,37.045c-52.34,9.474-125.66,1.035-142.663-0.68c-46.586-4.698-62.65,1.378,9.74,8.842
	c61.155,6.307,55.982,2.65,74.42,8.975c-10.908,15.425-6.447,3.601-90.782,46.973c-16.72,8.599-23.84,3.821-68.956-1.442
	c-26.082-3.043-22.833,0.376-33.116-0.157c-3.291-0.17-3.375,3.919-0.05,4.355c9.853,1.292,16.826-1.251,43.326,2.578
	c19.526,2.822,41.23,9.505,42.764,10.594c0.327,1.079-0.456,1.414-1.005,1.905c-25.65,22.938-15.74,10.968-81.156,39.249
	c-3.491,1.509-4.735,1.716-4.058,3.405c1.188,2.963,35.697-7.229,48.587-8.3c0.922,3.185-0.321,4.891-2.598,17.148
	c-0.445,2.393,1.593,3.181,3.066,1.892c26.597-23.274,32.202-54.139,102.579-84.895c6.158-2.691,80.313-33.816,108.551-41.387
	c9.813-2.631-54.702,133.788-171.365,150.693c-9.362,1.357-62.442,4.982-62.66,11.018c6.164,0.737,64.103-3.017,74.606-2.657
	c-0.683,3.814-2.175,6.994-3.778,10.099c-5.328,10.324-7.572,26.805-1.588,32.376c2.576,2.398,9.111-0.61,9.118-8.896
	c0.016-19.888,16.071-35.254,33.649-44.494c11.897-6.254,37.382-14.989,70.975-47.654c64.112-62.341,57.234-91.875,129.867-116.2
	c3.203-1.073,6.5-1.55,10.357-1.839c-27.812,78.354-26.856,72.953-25.259,73.805c7.078,3.776,18.4-40.017,36.411-67.927
	c44.981-69.707,195.426-117.247,222.822-115.599c9.46,0.569,12.005,3.048,10.587,12.318c-4.705,30.76-18.156,31.198-26.61,45.596
	c-13.498,22.991-19.088,40.393-50.666,49.514c-80.594,23.279-82.463,21.116-123.896,12.576c-1.769-0.365-15.576-2.181-16.778-0.846
	c-0.106,2.939,27.159,7.835,46.03,14.51c4.592,1.625,3.668,0.755-49.276,40.88c-5.502,4.17-6.257,4.919-5.531,6.122
	c2.267,3.759,19.994-7.217,23.918-9.541c66.482-39.377,132.599-52.594,138.767-52.24c14.159,0.813-12.53,32.428-23.039,42.17
	c-18.194,16.864-42.118,30.344-79.956,65.034c-39.698,36.395-68.164,8.705-121.358,3.488c-0.961-0.094-1.885-0.013-2.234,1.11
	c-0.618,1.987-1.223,0.776,25.474,12.322c1.422,0.615,3.552,0.66,3.323,3.395c-35.62,5.767-34.4,5.147-34.356,7.082
	c0.184,8.037,74.556,0.492,98.792,0.492c0.293,3.683-15.062,25.498-40.938,40.716c-62.567,36.797-79.24,41.904-102.862,40.107
	c-20.303-1.544-26.649-9.122-46.067-7.216c-11.985,1.176-29.016,3.752-38.665,11.172c10.845,2.803,39.261-8.779,72.874,1.748
	c3.158,0.989,23.559,7.922,24.79,10.982c-4.143,1.58-8.48,2.429-12.735,3.059c-55.565,8.22-169.308,77.39-165.835,82.276
	c1.187,1.669-0.089,1.597,41.044-16.891c1.333,1.068,0.685,1.932,0.407,2.761c-10.062,29.97-10.164,28.328-8.126,29.369
	c4.117,2.103,9.101-8.733,18.016-21.912c20.727-30.64,53.886-52.255,77.953-58.645c21.872-5.808,52.903-4.904,55.028-3.118
	c-7.315,16.554-9.348,15.653-55.423,55.145c-4.073,3.491-17.543,14.493-17.328,17.284c12.449,0.233,36.249-19.665,51.49-27.659
	c6.744-3.537,12.739-6.38-9.481,40.523c-7.989,16.864-18.821,12.374-50.272,45.052c-0.415,0.431-0.836,0.931-0.567,2.099
	c14.441-1.914,33.747-19.831,41.434-22.648c-1.669,11.364-3.239,22.057-4.781,32.562c2.946,1.476,15.229-7.386,16.902-21.159
	c3.729-30.697,18.76-52.437,27.177-75.148c7.818-21.093,12.719-49.718,48.402-75.882c43.214-31.686,45.801-13.931,43.259-6.906
	c-14.306,39.534-32.504,51.842-36.678,64.855c-1.205,3.757,0.92,4.724,3.599,2.506c26.434-21.888,25.142-22.583,26.216-16.736
	c7.934,43.222-7.129,75.209-36.85,104.964c-7.165,7.173-22.434,9.976-39.054,26.076c-22.499,21.794,23.697-1.106,28.087-2.047
	c-32.011,53.506-29.924,49.308-28.362,50.441c10.172,7.371,83.011-129.053,83.986-98.903c0.544,16.833-12.692,41.7-21.868,77.39
	c-1.993,7.752-2.56,21.1-3.342,27.928c-0.55,4.801,2.908,2.443,6.922,0.584c4.335-2.008,4.281-1.53,7.44,5.641
	c8.17,18.546,28.208-214.393,38.569-252.501c8.894-32.716,20.774-41.83,82.968-101.396c28.373-27.175,21.961-20.529,39.083-30.49
	c6.957-4.047,3.344,3.925,0.395,82.086c-7.452,197.489-4.058,143.224-100.87,205.013c-7.336,4.682-6.693,12.541-3.038,10.768
	c42.298-20.513,47.81-27.927,50.295-23.478c0.906,1.622-0.405,1.661-8.663,10.235c-3.681,3.822-5.104,13.239-0.568,11.674
	c6.858-2.366,6.128-1.832,30.941-25.173c11.303-10.633,13.34-12.431,15.901-16.655c0.725-1.196,1.323-3.18,3.352-2.519
	c1.973,0.643,4.264,1.005,4.888,3.648c9.027,38.235,4.959,20.414,9.446,58.725c3.626,30.966,4.81,41.363-3.01,54.712
	c-0.836,1.427-23.043,31.565-17.778,49.226c1.707-0.216-1.135,3.422,32.283-46.954c2.899-4.37,3.155-4.149,5.742-2.167
	c11.106,8.513,26.837,31.133,30.634,47.47c1.978,8.509,0.998,12.608,9.65,15.742c2.31,0.837,5.298-3.396,3.977-7.134
	c-17.733-50.211-26.888-41.971-43.405-93.475c-21.787-67.939-8.643-157.406,8.527-185.206c9.177,6.405,8.31,3.388,39.677,72.509
	c9.098,20.05,11.514,21.336,6.914,25.891c-49.788,49.296-48.634,46.294-50.235,55.173c-0.492,2.73,0.181,3.405,2.955,2.854
	c12.03-2.389,15.777-10.729,22.406-21.104c0.419-0.655,0.772-1.344,1.648-1.595c3.493,1.102,8.829,32.068,14.395,18.55
	c14.645-35.576,13.733-35.311,17.291-35.79c7.004-0.943,17.753,32.832,20.976,61.963c1.333,12.045,4.885,19.096-8.658,37.594
	c-8.251,11.269-14.088,23.955-10.347,39.109c6.438-2.686,9.487-23.691,24.855-36.068c7.062-5.688,4.551,10.63,11.223-1.21
	c6.63-11.763,14.512-29.654,18.646-22.441c42.508,74.148,15.426,96.084,18.2,105.807c2.044-0.88,2.492-2.582,3.122-4.069
	c3.726-8.791,8.459-17.114,11.975-26.007c2.072-5.241,1.579-4.117,23.646,13.155c16.186,12.668-25.805-45.743-24.982-52.592
	c2.526-0.841,5.241-0.616,7.867-0.065c48.874,10.24,49.571,43.288,59.655,55.121c1.679,1.971,3.968,1.407,3.601-1.533
	c0,0-3.737-26.547-3.742-26.573c3.95-1.944,25.012,13.385,30.28,12.301c-1.756-3.763-4.779-5.841-7.996-7.621
	c-84.674-46.856-118.468-58.362-104.111-89.483c3.35-7.261,11.459-6.196,24.503-4.31c24.064,3.479,49.455,10.84,61.474,30.734
	c5.596,9.262,17.782,20.644,30.329,21.848c4.049-7.095-27.244-22.229-30.295-37.557c11.135-7.323,48.037,16.068,58.412,14.877
	c1.355-0.156,2.877-1.892,0.717-3.201c-13.26-8.037,3.136-3.823-112.166-35.313c-31.4-8.576-27.325-11.487-17.697-78.827
	c1.693-0.281,2.644,0.453,3.668,1.182c52.755,37.523,59.036,52.215,68.956,52.851c11.768,0.754-22.906-29.237-51.753-56.392
	c-24.963-23.5-16.099-8.801-10.988-89.243c0.217-3.417-2.079-6.184,23.92,1.828c35.393,10.906,42.864,12.462,49.835,20.417
	c47.721,54.459,38.795,32.304,40.134,105.277c0.21,11.427,2.205,28.036,3.68,33.015c1.737,5.859,8.016-1.809,9.279-7.604
	c1.064-4.883,0.758-0.512,0.939-94.365c0.03-15.935,7.841-12.352,26.858-9.126c-2.634-5.583-26.16-13.004-30.32-37.275
	c-1.885-10.998,7.588-14.758,15.987-7.542c46.509,39.963,47.496,60.352,62.569,106.881c10.185,31.441,14.624,51.472,14.792,74.746
	c0.207,28.669,0.912,29.788-2.216,33.664c-2.829,3.506-10.24,18.08-8.604,19.855c1.729,1.875,3.131,1.06,11.946-2.756
	c11.862-5.134,8.129,6.057,19.182,9.882c4.235,1.465,6.279-0.326,5.451-4.695c-17.855-94.244-17.266-79.673-40.086-164.043
	c-1.93-7.136-2.224-26.625-25.451-55.83c-27.66-34.777-106.376-94.278-127.358-115.067c-40.661-40.286-46.595-81.073-51.746-113.578
	c-0.638-4.025-3.547-37.467-3.604-45.537c-0.041-5.703-2.668-16.105,2.661-38.432c4.036-16.909,23.901-2.82,35.988,9.624
	c19.338,19.908,53.833,53.866,65.044,69.942c32.749,46.957,3.688,134.088,3.632,143.991c-0.014,2.484,0.835,3.008,3.224,2.026
	c7.068-2.905,7.128-8.63,9.323-17.917c1.336-5.654,4.449-8.607,9.147-4.618c13.372,11.355,14.594,28.107,27.068,39.147
	c2.754-5.488-8.099-23.478-17.667-55.955c-4.656-15.804-5.486-28.675-6.75-58.423c-0.063-1.476,0.172-2.666,1.756-3.384
	c3.059-1.386,6.494,3.446,10.679,8.818c63.008,80.858,95.985,87.902,114.871,121.033c14.235,24.973,33.836,84.472,34.607,135.635
	c0.841,55.864-11.249,80.151-5.311,87.283c14.961,17.967,6.788-60.413,18.424-48.242c3.811,3.987,5.019,5.123,21.519,57.641
	c9.985,31.783,15.002,23.61,14.731,21.054c-2.813-26.536-31.839-116.121-31.538-115.121c-5.28-17.559-5.495-18.258-3.214-19.462
	c4.518-2.384,13.339,13.842,17.448,13.323c3.211-0.405,4.07-1.876,2.831-5.034c-9.543-24.326-19.33-12.188-41.61-101.97
	c-4.498-18.124,15.737-3.685,60.187,28.536c28.037,20.324,51.789,35.334,54.026,70.388c2.411,37.809,2.196,37.951,9.788,41.37
	c1.982,0.893,5.718-1.432,4.942-8.403c-2.548-22.868-4.915-26.398,2.746-23.473c16.461,6.286,39.756,26.005,44.492,23.286
	c0.25-3.029-11.672-13.723-19.5-18.502c-26.78-16.35-40.507-47.413-53.391-70.101c-1.491-2.626-2.181-7.036,2.125-6.003
	c20.764,4.982,41.374,14.188,43.069,11.44c0.74-1.198-0.175-1.442-6.696-4.617c-44.3-21.568-69.794-32.727-112.119-61.226
	c-35.421-23.851-89.612-64.106-115.794-97.814c9.004-9.062,160.513,57.93,173.973,46.641c-3.221-9.258-48.879-12.6-69.305-24.755
	c9.11-5.918,37.953-0.452,50.008-11.344c1-0.904,3.266-1.735,2.277-4.49c-1.05-2.923-8.408-0.747-13.532,0.036
	c-7.544,1.154-25.871,11.505-51.902,2.979c-84.048-27.528-106.744-32.053-154.643-94.19c-23.442-30.41-36.137-60.665-113.09-124.789
	c-1.215-1.012-3.588-1.896-2.724-3.787c0.914-2.001,3.359-1.115,4.973-0.72c45.828,11.211,72.949,24.047,111.609,27.917
	c24.786,2.482,48.527,1.782,61.162,5.196c24.911,6.73,22.81,19.11,48.078,54.281c7.975,11.102,16.848,16.2,23.682,28.167
	c14.055,24.613,4.241,27.364,19.26,44.726c0.742,0.858,1.938,1.217,2.911,0.552c1.338-0.914,0.237,0.012-4.777-29.174
	c-0.595-3.463,2.834-5.476,5.42-3.945c36.909,21.855,34.958,21.085,37.245,20.129c-5.628-12.844-39.312-28.14-56.903-44.724
	c-2.13-2.008-1.284-5.17,1.865-5.178c15.316-0.039,50.912,3.068,53.92,1.5c0.239-1.331-0.626-1.521-1.613-1.682
	c-78.626-12.783-72.128-3.711-88.205-44.804c-0.528-1.349-1.904-2.691-0.483-4.231c1.332-1.443,3.081-1.385,4.738-0.84
	c17.349,5.697,169.722,82.243,183.3,94.096c27.853,24.314,48.752,74.195,55.044,110.725c7.46,43.314,2.69,60.983,2.215,94.365
	c-0.082,5.73,1.105,11.338,1.008,17.055c-0.049,2.865,1.501,4.935,4.559,7.544c0.793,0.027,1.095-0.564,1.216-1.151
	c4.405-21.364-4.9-35.376,7.038-58.123c7.077-13.484,43.172,89.03,52.5,87.55c11.663-1.851-70.111-143.604-58.596-150.507
	c4.629-2.775,78.92,58.435,81.815,55.445c2.283-2.359-1.316-4.62-65.79-60.14c-27.096-23.333-20.112-36.198-35.265-62.052
	c-1.129-1.927-26.653-46.146-26.697-48.405c2.93-1.17,50.683,11.015,67.52,16.451c33.349,10.768,65.787,26.602,86.456,54.583
	c10.622,14.381,20.582,23.177,28.938,34.784c0.845,1.174,1.736,2.589,3.717,2.15c6.464-1.433,3.132-5.872-16.396-31.761
	c-10.657-14.127,4.437-13.86,9.238-12.06c42.406,15.895,66.407,40.448,82.925,39.374c11.761-0.765-31.157-20.08-39.101-25.653
	c-39.983-28.051,11.476,7.192-114.501-60.539c-3.178-1.709-1.853-3.687,0.491-4.306c0.453-0.12,28.32-1.44,32.778-1.31
	c1.252,0.037,3.373,0.663,3.49-1.134c0.12-1.834-2.01-1.331-3.268-1.495c-56.388-7.357-158.423-32.32-157.423-32.112
	c-53.88-11.202-56.238-16.196-154.156-77.435c-2.584-1.616-5.287-3.214-6.661-6.787c12.488-2.685,107.911-8.098,132.939,3.124
	c21.832,9.789,33.031,26.972,50.268,28.987c-2.654-10.46-17.594-20.033-39.438-36.435c3.85-4.351,23.284-0.626,28.729,0.52
	c103.081,21.688,80.89,7.3,139.329,51.424c39.799,30.05,39.337,30.728,46.413,32.647c1.31-3.653-47.872-45.301-46.361-48.642
	C1315.771,1023.5,1328.899,1030.258,1432.788,1078.823z M803.414,323.742c4.741-2.125,43.17-22.295,41.601-9.436
	c-5.489,44.937-42.962,72.95-96.609,113.43c-2.915,2.2-2.97,2.126-4.045-1.361c-3.843-12.468-6.339-27.331-6.309-39.03
	C740.272,353.807,741.779,351.371,803.414,323.742z M675.721,179.56c0.822-3.611,3.143-26.443,7.727-18.442
	c5.454,9.522,6.949,2.11,27.77,104.857c1.122,5.535,0.732,16.525,0.652,17.528c-0.468,5.863-5.605,7.227-9.716,4.606
	c-5.701-3.635-30.211-25.41-41.031-36.565C645.925,235.876,665.86,222.91,675.721,179.56z M624.248,312.185
	c3.972-9.014,3.543-3.873,10.819-22.137c0.345-0.866,12.282-27.726,12.913-28.449c2.181,1.911,4.504,3.634,6.452,5.708
	c33.716,35.899,22.882,16.339,41.87,40.186c27.071,33.999,23.033,86.265,21.318,135.423c-1.742,49.963,1.06,54.716-25.191,39.724
	c-46.178-26.373-62.787-50.696-70.764-73.585c-6.281-18.024,2.532-33.023,6.597-45.324c4.748-14.371,10.794-36.238,10.911-36.987
	c0.583-3.737-4.022-9.036-7.535-2.995c-5.653,9.722-3.132,9.003-13.027,35.936c-1.238,3.37-8.149,12.015-13.149,8.161
	C601.893,365.095,622.398,316.384,624.248,312.185z M588.142,406.529c1.075-20.506,6.043-20.325,12.36-23.898
	c1.601-0.906,2.173,1.578,2.228,3.621c1.729,64.101,106.98,108.519,106.003,133.974c-0.044,1.14,2.682,97.292-18.372,143.854
	c-1.775,3.926-4.407,4.21-7.168,0.747C585.685,542.483,584.058,484.45,588.142,406.529z M744.36,1216.073
	c1.075-3.488,1.13-3.561,4.045-1.361c59.014,44.529,91.344,70.323,96.609,113.43c1.569,12.859-36.86-7.311-41.601-9.436
	c-61.265-27.462-63.118-29.713-65.363-63.602C738.022,1243.404,740.517,1228.541,744.36,1216.073z M600.502,1259.816
	c-6.302-3.565-11.284-3.372-12.36-23.898c-4.097-78.162-2.446-135.968,95.051-258.298c13.602-17.067,27.043,86.001,25.479,124.238
	c0,23.201,1.678,27.362-6.456,34.451c-53.721,46.817-98.29,75.551-99.486,119.886
	C602.649,1259.21,601.685,1260.485,600.502,1259.816z M681.729,1483.231c-3.475,0.052-5.497-18.098-6.008-20.344
	c-16.525-72.643-43.915-47.935,19.147-102.878c2.319-2.02,4.701-4.023,7.286-5.67c4.111-2.621,9.248-1.257,9.716,4.606
	C713.23,1375.992,690.437,1483.102,681.729,1483.231z M681.001,1350.503c-13.268,8.723-20.012,18.947-33.021,30.347
	c-1.445-1.655-16.513-37.812-18.437-41.02c-8.576-14.301-34.169-76.076-18.944-65.752c4.425,3.001,9.17,5.24,15.344,30.538
	c5.997,24.575,14.574,16.48,12.917,10.22c-8.546-32.288-17.772-56.526-17.772-56.526c-5.733-22.474,8.77-47.038,24.15-63.141
	c20.257-21.209,53.075-39.624,60.33-42.084c13.864-4.7,10.603,9.672,12.718,74.671
	C719.252,1257.429,721.776,1323.695,681.001,1350.503z"/>
</svg>
